<svg height="512.00024pt" viewBox="0 0 512.00024 512.00024" width="512.00024pt" xmlns="http://www.w3.org/2000/svg"><path d="m423.722656 35.3125v26.480469c0 4.875-3.949218 8.828125-8.824218 8.828125h-353.105469c-4.875 0-8.828125-3.953125-8.828125-8.828125v-26.480469c0-19.503906-15.808594-35.3125-35.308594-35.3125h370.757812c19.5 0 35.308594 15.808594 35.308594 35.3125zm0 0" fill="#e6e7e8"/><path d="m370.757812 70.621094v185.378906l-97.101562 194.207031h-256c-9.738281-.027343-17.625-7.917969-17.65625-17.65625v-414.894531c-.0234375-4.683594 1.855469-9.175781 5.207031-12.449219 3.273438-3.351562 7.765625-5.2304685 12.449219-5.207031 19.5 0 35.308594 15.808594 35.308594 35.3125v26.480469c0 4.875 3.953125 8.828125 8.828125 8.828125zm0 0" fill="#d1d4d1"/><path d="m211.863281 326.621094c0 48.753906-39.523437 88.277344-88.277343 88.277344-48.753907 0-88.273438-39.523438-88.273438-88.277344s39.519531-88.277344 88.273438-88.277344c48.753906 0 88.277343 39.523438 88.277343 88.277344zm0 0" fill="#71c285"/><path d="m291.3125 229.515625h194.203125c14.628906 0 26.484375 11.859375 26.484375 26.484375v229.515625c0 14.628906-11.855469 26.484375-26.484375 26.484375h-194.203125c-14.628906 0-26.484375-11.855469-26.484375-26.484375v-229.515625c0-14.625 11.855469-26.484375 26.484375-26.484375zm0 0" fill="#4482c3"/><g fill="#5e5f62"><path d="m326.621094 132.414062h-273.65625c-4.875 0-8.828125-3.953124-8.828125-8.828124s3.953125-8.828126 8.828125-8.828126h273.65625c4.875 0 8.828125 3.953126 8.828125 8.828126s-3.953125 8.828124-8.828125 8.828124zm0 0"/><path d="m105.929688 167.722656h-52.964844c-4.875 0-8.828125-3.949218-8.828125-8.824218 0-4.878907 3.953125-8.828126 8.828125-8.828126h52.964844c4.875 0 8.828124 3.949219 8.828124 8.828126 0 4.875-3.953124 8.824218-8.828124 8.824218zm0 0"/><path d="m326.621094 167.722656h-167.722656c-4.878907 0-8.828126-3.949218-8.828126-8.824218 0-4.878907 3.949219-8.828126 8.828126-8.828126h167.722656c4.875 0 8.828125 3.949219 8.828125 8.828126 0 4.875-3.953125 8.824218-8.828125 8.824218zm0 0"/><path d="m203.035156 203.035156h-150.070312c-4.875 0-8.828125-3.953125-8.828125-8.828125s3.953125-8.828125 8.828125-8.828125h150.070312c4.875 0 8.828125 3.953125 8.828125 8.828125s-3.953125 8.828125-8.828125 8.828125zm0 0"/><path d="m326.621094 203.035156h-70.621094c-4.875 0-8.828125-3.953125-8.828125-8.828125s3.953125-8.828125 8.828125-8.828125h70.621094c4.875 0 8.828125 3.953125 8.828125 8.828125s-3.953125 8.828125-8.828125 8.828125zm0 0"/></g><path d="m264.828125 264.828125h247.171875v70.621094h-247.171875zm0 0" fill="#b0d3f0"/><path d="m308.964844 370.757812h17.65625c4.875 0 8.828125 3.953126 8.828125 8.828126v17.65625c0 4.875-3.953125 8.828124-8.828125 8.828124h-17.65625c-4.875 0-8.828125-3.953124-8.828125-8.828124v-17.65625c0-4.875 3.953125-8.828126 8.828125-8.828126zm0 0" fill="#2c2f38"/><path d="m308.964844 441.378906h17.65625c4.875 0 8.828125 3.953125 8.828125 8.828125v17.65625c0 4.875-3.953125 8.828125-8.828125 8.828125h-17.65625c-4.875 0-8.828125-3.953125-8.828125-8.828125v-17.65625c0-4.875 3.953125-8.828125 8.828125-8.828125zm0 0" fill="#2c2f38"/><path d="m379.585938 370.757812h17.65625c4.875 0 8.828124 3.953126 8.828124 8.828126v17.65625c0 4.875-3.953124 8.828124-8.828124 8.828124h-17.65625c-4.875 0-8.828126-3.953124-8.828126-8.828124v-17.65625c0-4.875 3.953126-8.828126 8.828126-8.828126zm0 0" fill="#2c2f38"/><path d="m450.207031 370.757812h17.65625c4.875 0 8.828125 3.953126 8.828125 8.828126v88.277343c0 4.875-3.953125 8.828125-8.828125 8.828125h-17.65625c-4.875 0-8.828125-3.953125-8.828125-8.828125v-88.277343c0-4.875 3.953125-8.828126 8.828125-8.828126zm0 0" fill="#c03a2b"/><path d="m379.585938 441.378906h17.65625c4.875 0 8.828124 3.953125 8.828124 8.828125v17.65625c0 4.875-3.953124 8.828125-8.828124 8.828125h-17.65625c-4.875 0-8.828126-3.953125-8.828126-8.828125v-17.65625c0-4.875 3.953126-8.828125 8.828126-8.828125zm0 0" fill="#2c2f38"/><path d="m361.929688 264.828125c.007812 2.148437-.78125 4.21875-2.207032 5.824219l-56.671875 64.796875h-20.566406c-.003906-2.148438.78125-4.222657 2.207031-5.828125l56.671875-64.792969zm0 0" fill="#fff"/><path d="m406.070312 264.828125c-.019531 1.90625-.636718 3.761719-1.765624 5.296875l-26.484376 35.308594c-1.679687 2.210937-4.289062 3.515625-7.0625 3.53125-1.914062.027344-3.777343-.597656-5.296874-1.765625-3.898438-2.925781-4.6875-8.457031-1.765626-12.359375l22.511719-30.011719zm0 0" fill="#fff"/><path d="m132.414062 370.757812h-35.308593c-4.878907 0-8.828125-3.953124-8.828125-8.828124s3.949218-8.824219 8.828125-8.824219h35.308593c4.875 0 8.828126-3.953125 8.828126-8.828125s-3.953126-8.828125-8.828126-8.828125h-17.65625c-14.625 0-26.480468-11.859375-26.480468-26.484375s11.855468-26.480469 26.480468-26.480469h35.3125c4.875 0 8.828126 3.949219 8.828126 8.828125 0 4.875-3.953126 8.824219-8.828126 8.824219h-35.3125c-4.875 0-8.828124 3.953125-8.828124 8.828125s3.953124 8.828125 8.828124 8.828125h17.65625c14.625 0 26.484376 11.855469 26.484376 26.484375 0 14.625-11.859376 26.480468-26.484376 26.480468zm0 0" fill="#4c8056"/><path d="m123.585938 300.136719c-4.875 0-8.828126-3.949219-8.828126-8.824219v-17.65625c0-4.875 3.953126-8.828125 8.828126-8.828125s8.828124 3.953125 8.828124 8.828125v17.65625c0 4.875-3.953124 8.824219-8.828124 8.824219zm0 0" fill="#4c8056"/><path d="m123.585938 388.414062c-4.875 0-8.828126-3.953124-8.828126-8.828124v-17.65625c0-4.875 3.953126-8.824219 8.828126-8.824219s8.828124 3.949219 8.828124 8.824219v17.65625c0 4.875-3.953124 8.828124-8.828124 8.828124zm0 0" fill="#4c8056"/></svg>