<?xml version="1.0" encoding="iso-8859-1"?>
<!-- Generator: Adobe Illustrator 19.0.0, SVG Export Plug-In . SVG Version: 6.00 Build 0)  -->
<svg version="1.1" id="Capa_1" xmlns="http://www.w3.org/2000/svg" xmlns:xlink="http://www.w3.org/1999/xlink" x="0px" y="0px"
	 viewBox="0 0 512.003 512.003" style="enable-background:new 0 0 512.003 512.003;" xml:space="preserve">
<g>
	<g>
		<path style="fill:#556080;" d="M308.967,52.969c0.025,22.44-14.137,42.444-35.31,49.876c-11.41,4.12-23.901,4.12-35.31,0
			c-25.376-8.991-39.963-35.594-33.9-61.824c6.063-26.23,30.846-43.732,57.593-40.675C288.786,3.404,308.98,26.047,308.967,52.969z"
			/>
		<path style="fill:#556080;" d="M273.657,61.796v231.935l-17.567,6.409h-0.088l-17.655-6.409V61.796
			C249.44,67.44,262.563,67.44,273.657,61.796z"/>
	</g>
	<g>
		<path style="fill:#B0D3F0;" d="M238.346,141.245v26.483c-61.793,35.31-97.103,8.828-97.103,8.828
			C52.967,220.693,0.002,132.417,0.002,132.417c2.549,0.308,5.113,0.485,7.68,0.53c17.043-0.745,33.66-5.558,48.463-14.036
			c15.81-8.647,31-18.381,45.462-29.131c11.871-9.208,24.444-17.473,37.606-24.717c6.378-4.408,14.472-5.522,21.804-3.001
			c3.987,2.928,7.002,6.988,8.651,11.652c2.575,5.312,5.556,10.418,8.916,15.272C194.182,110.805,214.642,128.696,238.346,141.245z"
			/>
		<path style="fill:#B0D3F0;" d="M512.002,132.417c0,0-52.966,88.276-141.241,44.138c0,0-35.31,26.483-97.103-8.828v-26.483
			c23.705-12.549,44.165-30.44,59.763-52.259c3.36-4.854,6.341-9.96,8.916-15.272c1.649-4.664,4.664-8.724,8.651-11.652
			c7.332-2.521,15.426-1.407,21.804,3.001c13.161,7.244,25.735,15.509,37.606,24.717c14.462,10.75,29.652,20.484,45.462,29.131
			c14.803,8.478,31.42,13.291,48.463,14.036C506.889,132.902,509.452,132.725,512.002,132.417z"/>
	</g>
	<path style="fill:#4482C3;" d="M343.218,383.827l-21.892-6.179l27.719-7.768c15.284-4.346,25.792-18.353,25.689-34.242
		c-0.103-15.889-10.792-29.759-26.13-33.907l-24.364-6.532l20.392-5.473c13.625-3.682,23.755-15.115,25.769-29.084
		c2.015-13.969-4.471-27.798-16.5-35.181l-17.92-11.034c-5.393-3.311-12.143-3.494-17.707-0.48
		c-5.564,3.015-9.098,8.769-9.269,15.095c-0.171,6.326,3.045,12.263,8.438,15.575l18.008,10.946l-61.793,16.596l-17.567,4.679
		h-0.088l-17.655-4.679l-61.705-16.596l18.008-10.946c5.393-3.311,8.61-9.249,8.438-15.575c-0.171-6.326-3.705-12.08-9.269-15.095
		s-12.314-2.832-17.707,0.48l-17.92,11.034c-12.029,7.382-18.515,21.212-16.5,35.181c2.015,13.969,12.144,25.402,25.769,29.084
		l20.392,5.473l-24.364,6.532c-15.339,4.148-26.027,18.017-26.13,33.907c-0.103,15.889,10.405,29.896,25.689,34.242l27.719,7.768
		l-21.892,6.179c-14.557,4.091-24.888,17.003-25.687,32.103c-0.799,15.099,8.112,29.029,22.156,34.634l74.946,30.014l15.713,31.426
		l15.625-31.338h0.088l75.034-30.102c14.043-5.605,22.954-19.535,22.155-34.634C368.106,400.83,357.775,387.918,343.218,383.827z
		 M172.669,335.805l65.677-17.567l17.743-4.767l17.567,4.679l65.766,17.655l-65.766,18.538l-17.567,4.943l-17.743-5.032
		L172.669,335.805z M273.657,441.824l-17.567,7.062l-17.743-7.15l-59.939-23.923l59.939-16.861l17.743-4.943l17.567,4.943
		l60.028,16.861L273.657,441.824z"/>
	<g>
		<path style="fill:#285680;" d="M368.906,415.959c1.003,15.146-7.982,29.177-22.157,34.604l-75.034,30.102h-0.088l-15.625,31.338
			l0.088-63.117l17.567-7.062l60.028-24.011l-60.028-16.861l-17.567-4.943l65.236-18.361l21.892,6.179
			C357.878,387.78,368.278,400.789,368.906,415.959z"/>
		<path style="fill:#285680;" d="M370.407,260.594c-2.019,13.98-12.147,25.426-25.777,29.131l-20.392,5.473l-68.149-18.361
			l17.567-4.679l61.793-16.596l-18.008-10.946c-5.393-3.311-8.61-9.249-8.438-15.575c0.171-6.326,3.705-12.08,9.269-15.095
			c5.564-3.015,12.314-2.832,17.707,0.48l17.92,11.034C365.916,232.832,372.403,246.638,370.407,260.594z"/>
		<path style="fill:#285680;" d="M238.346,354.254l17.743,5.032l-17.743,4.943l-47.581,13.418l-27.719-7.768
			c-15.284-4.346-25.792-18.353-25.689-34.242c0.103-15.889,10.791-29.759,26.13-33.907l24.364-6.532l50.494,13.506l17.743,4.767
			l-17.743,4.767l-65.677,17.567L238.346,354.254z"/>
	</g>
</g>
<g>
</g>
<g>
</g>
<g>
</g>
<g>
</g>
<g>
</g>
<g>
</g>
<g>
</g>
<g>
</g>
<g>
</g>
<g>
</g>
<g>
</g>
<g>
</g>
<g>
</g>
<g>
</g>
<g>
</g>
</svg>
