<svg height="512pt" viewBox="0 0 512 512" width="512pt" xmlns="http://www.w3.org/2000/svg"><path d="m26.484375 459.035156h61.792969v44.136719c0 4.875-3.953125 8.828125-8.828125 8.828125h-44.140625c-4.875 0-8.824219-3.953125-8.824219-8.828125zm0 0" fill="#2c3e50"/><path d="m423.722656 459.035156h61.792969v44.136719c0 4.875-3.949219 8.828125-8.824219 8.828125h-44.140625c-4.875 0-8.828125-3.953125-8.828125-8.828125zm0 0" fill="#2c3e50"/><path d="m17.65625 0h476.6875c9.75 0 17.65625 7.90625 17.65625 17.65625v441.378906c0 9.75-7.90625 17.65625-17.65625 17.65625h-476.6875c-9.75 0-17.65625-7.90625-17.65625-17.65625v-441.378906c0-9.75 7.90625-17.65625 17.65625-17.65625zm0 0" fill="#3f5c6c"/><path d="m44.136719 35.308594h423.726562c4.875 0 8.828125 3.953125 8.828125 8.828125v317.792969c0 4.875-3.953125 8.828124-8.828125 8.828124h-423.726562c-4.875 0-8.828125-3.953124-8.828125-8.828124v-317.792969c0-4.875 3.953125-8.828125 8.828125-8.828125zm0 0" fill="#90bae1"/><path d="m475.101562 39.105469c-54.730468 20.570312-311.878906 125.792969-438.996093 326.445312-.53125-1.132812-.804688-2.367187-.796875-3.621093v-317.792969c0-4.875 3.953125-8.828125 8.828125-8.828125h423.726562c2.886719.007812 5.589844 1.425781 7.238281 3.796875zm0 0" fill="#b0d3f0"/><path d="m52.964844 432.550781h-8.828125c-4.875 0-8.828125-3.953125-8.828125-8.828125s3.953125-8.824218 8.828125-8.824218h8.828125c4.875 0 8.828125 3.949218 8.828125 8.824218s-3.953125 8.828125-8.828125 8.828125zm0 0" fill="#ff5364"/><path d="m123.585938 423.722656c0 9.753906-7.902344 17.65625-17.65625 17.65625-9.75 0-17.652344-7.902344-17.652344-17.65625 0-9.75 7.902344-17.652344 17.652344-17.652344 9.753906 0 17.65625 7.902344 17.65625 17.652344zm0 0" fill="#2c3e50"/><path d="m194.207031 423.722656c0 9.753906-7.90625 17.65625-17.65625 17.65625s-17.652343-7.902344-17.652343-17.65625c0-9.75 7.902343-17.652344 17.652343-17.652344s17.65625 7.902344 17.65625 17.652344zm0 0" fill="#2c3e50"/><path d="m264.828125 423.722656c0 9.753906-7.90625 17.65625-17.65625 17.65625s-17.65625-7.902344-17.65625-17.65625c0-9.75 7.90625-17.652344 17.65625-17.652344s17.65625 7.902344 17.65625 17.652344zm0 0" fill="#2c3e50"/><path d="m414.898438 432.550781h-70.621094c-4.875 0-8.828125-3.953125-8.828125-8.828125s3.953125-8.824218 8.828125-8.824218h70.621094c4.875 0 8.824218 3.949218 8.824218 8.824218s-3.949218 8.828125-8.824218 8.828125zm0 0" fill="#547580"/><path d="m467.863281 432.550781h-17.65625c-4.875 0-8.828125-3.953125-8.828125-8.828125s3.953125-8.824218 8.828125-8.824218h17.65625c4.875 0 8.828125 3.949218 8.828125 8.824218s-3.953125 8.828125-8.828125 8.828125zm0 0" fill="#547580"/><path d="m128 88.796875c4.089844-8.789063 12.019531-15.1875 21.472656-17.335937 9.449219-2.144532 19.363282.203124 26.847656 6.363281 12.078126 10.972656 12.078126 32.910156 0 54.84375-8.453124 16.457031-30.199218 32.910156-48.320312 43.882812-18.121094-10.972656-39.867188-27.425781-48.320312-43.882812-12.078126-21.933594-12.078126-43.871094 0-54.84375 7.484374-6.160157 17.398437-8.507813 26.847656-6.363281 9.453125 2.148437 17.382812 8.546874 21.472656 17.335937zm0 0" fill="#ff5364" fill-rule="evenodd"/><g fill="#3f5c6c"><path d="m88.277344 220.691406h-17.65625c-4.875 0-8.828125-3.953125-8.828125-8.828125s3.953125-8.828125 8.828125-8.828125h17.65625c4.875 0 8.824218 3.953125 8.824218 8.828125s-3.949218 8.828125-8.824218 8.828125zm0 0"/><path d="m185.378906 220.691406h-61.792968c-4.875 0-8.828126-3.953125-8.828126-8.828125s3.953126-8.828125 8.828126-8.828125h61.792968c4.875 0 8.828125 3.953125 8.828125 8.828125s-3.953125 8.828125-8.828125 8.828125zm0 0"/><path d="m88.277344 256h-17.65625c-4.875 0-8.828125-3.953125-8.828125-8.828125s3.953125-8.828125 8.828125-8.828125h17.65625c4.875 0 8.824218 3.953125 8.824218 8.828125s-3.949218 8.828125-8.824218 8.828125zm0 0"/><path d="m185.378906 256h-61.792968c-4.875 0-8.828126-3.953125-8.828126-8.828125s3.953126-8.828125 8.828126-8.828125h61.792968c4.875 0 8.828125 3.953125 8.828125 8.828125s-3.953125 8.828125-8.828125 8.828125zm0 0"/><path d="m88.277344 291.308594h-17.65625c-4.875 0-8.828125-3.949219-8.828125-8.824219 0-4.878906 3.953125-8.828125 8.828125-8.828125h17.65625c4.875 0 8.824218 3.949219 8.824218 8.828125 0 4.875-3.949218 8.824219-8.824218 8.824219zm0 0"/><path d="m185.378906 291.308594h-61.792968c-4.875 0-8.828126-3.949219-8.828126-8.824219 0-4.878906 3.953126-8.828125 8.828126-8.828125h61.792968c4.875 0 8.828125 3.949219 8.828125 8.828125 0 4.875-3.953125 8.824219-8.828125 8.824219zm0 0"/><path d="m88.277344 326.621094h-17.65625c-4.875 0-8.828125-3.953125-8.828125-8.828125s3.953125-8.828125 8.828125-8.828125h17.65625c4.875 0 8.824218 3.953125 8.824218 8.828125s-3.949218 8.828125-8.824218 8.828125zm0 0"/><path d="m185.378906 326.621094h-61.792968c-4.875 0-8.828126-3.953125-8.828126-8.828125s3.953126-8.828125 8.828126-8.828125h61.792968c4.875 0 8.828125 3.953125 8.828125 8.828125s-3.953125 8.828125-8.828125 8.828125zm0 0"/></g><path d="m416.351562 335.449219c-7.628906.03125-14.378906-4.933594-16.621093-12.226563l-42.371094-134.046875-7.460937 28.945313c-2.136719 7.945312-9.535157 13.320312-17.753907 12.894531s-15.023437-6.535156-16.328125-14.660156l-12.457031-75.28125-41.832031 176.339843c-1.78125 7.890626-8.816406 13.480469-16.90625 13.425782h-.097656c-8.0625.082031-15.105469-5.441406-16.9375-13.292969l-7.117188-28.636719c-2.324219.007813-4.558594-.914062-6.199219-2.5625-1.640625-1.648437-2.550781-3.886718-2.53125-6.214844.015625-2.351562.96875-4.597656 2.652344-6.246093 1.679687-1.644531 3.945313-2.550781 6.300781-2.519531 8.03125 0 15.023438 5.488281 16.9375 13.289062l7.117188 28.636719 41.859375-176.28125c1.921875-8.09375 9.289062-13.710938 17.605469-13.410157 8.316406.296876 15.265624 6.425782 16.601562 14.636719l12.457031 75.285157 7.449219-28.964844c1.984375-7.515625 8.71875-12.796875 16.488281-12.933594 7.796875-.285156 14.796875 4.746094 17.011719 12.226562l42.371094 134.046876 7.875-33.242188c1.914062-7.792969 8.890625-13.273438 16.914062-13.289062 4.875-.042969 8.867188 3.871093 8.910156 8.746093.046876 4.875-3.867187 8.863281-8.742187 8.910157l-8.226563 33.140624c-1.824218 7.632813-8.554687 13.082032-16.402343 13.285157zm0 0" fill="#f3d55b"/><path d="m388.414062 79.449219h-105.929687c-4.878906 0-8.828125-3.953125-8.828125-8.828125s3.949219-8.828125 8.828125-8.828125h105.929687c4.875 0 8.828126 3.953125 8.828126 8.828125s-3.953126 8.828125-8.828126 8.828125zm0 0" fill="#fff"/><path d="m441.378906 79.449219h-17.65625c-4.875 0-8.824218-3.953125-8.824218-8.828125s3.949218-8.828125 8.824218-8.828125h17.65625c4.875 0 8.828125 3.953125 8.828125 8.828125s-3.953125 8.828125-8.828125 8.828125zm0 0" fill="#fff"/></svg>