<svg height="512pt" viewBox="0 -33 512 512" width="512pt" xmlns="http://www.w3.org/2000/svg"><path d="m256 0-20.015625 147.585938 276.015625-20.015626v-127.570312zm0 0" fill="#b4d2d7"/><path d="m256 0h-256v127.570312l256 20.015626zm0 0" fill="#e1ebf0"/><path d="m47.839844 48.785156h31.890625v30h-31.890625zm0 0" fill="#ff3939"/><path d="m111.625 48.785156h31.894531v30h-31.894531zm0 0" fill="#ff9f22"/><path d="m175.410156 48.785156h31.894532v30h-31.894532zm0 0" fill="#15ccc2"/><path d="m256 446.496094h256v-318.925782h-256l-20.015625 159.464844zm0 0" fill="#03232e"/><path d="m0 127.570312h256v318.925782h-256zm0 0" fill="#07485e"/><path d="m334.722656 176.355469h129.4375v157.570312h-129.4375zm0 0" fill="#efe2dd"/><path d="m464.160156 367.710938h-208.160156l-10.007812 15 10.007812 15h208.160156zm0 0" fill="#7ed8f6"/><path d="m304.695312 176.355469h-48.695312l-10.007812 15 10.007812 15h48.695312zm0 0" fill="#ffda44"/><path d="m304.695312 240.140625h-48.695312l-10.007812 15 10.007812 15h48.695312zm0 0" fill="#ffda44"/><path d="m304.695312 303.925781h-48.695312l-10.007812 15 10.007812 15h48.695312zm0 0" fill="#7ed8f6"/><path d="m47.839844 367.710938h208.160156v30h-208.160156zm0 0" fill="#beebfa"/><path d="m47.839844 176.355469h208.160156v30h-208.160156zm0 0" fill="#f3e2c2"/><path d="m47.839844 240.140625h208.160156v30h-208.160156zm0 0" fill="#f3e2c2"/><path d="m47.839844 303.925781h208.160156v30h-208.160156zm0 0" fill="#beebfa"/></svg>