<svg height="512pt" viewBox="0 0 512 512" width="512pt" xmlns="http://www.w3.org/2000/svg"><path d="m17.65625 88.277344h476.6875c9.75 0 17.65625 7.902344 17.65625 17.652344v388.414062c0 9.75-7.90625 17.65625-17.65625 17.65625h-476.6875c-9.75 0-17.65625-7.90625-17.65625-17.65625v-388.414062c0-9.75 7.90625-17.652344 17.65625-17.652344zm0 0" fill="#a5a5a4"/><path d="m326.621094 317.792969h61.792968l-17.65625 97.105469 17.65625 97.101562h-61.792968zm0 0" fill="#e6e7e8"/><path d="m397.242188 0h-282.484376c-9.75 0-17.65625 7.90625-17.65625 17.65625v70.621094h35.3125v-35.3125c0-9.75 7.902344-17.65625 17.65625-17.65625h211.859376c9.753906 0 17.65625 7.90625 17.65625 17.65625v35.3125h35.3125v-70.621094c0-9.75-7.90625-17.65625-17.65625-17.65625zm0 0" fill="#5e5f62"/><path d="m308.964844 176.550781v17.65625c0 4.875-3.953125 8.828125-8.828125 8.828125h-17.652344c-4.878906 0-8.828125 3.953125-8.828125 8.828125v17.652344c0 4.878906-3.953125 8.828125-8.828125 8.828125h-17.65625c-4.875 0-8.828125-3.949219-8.828125-8.828125v-17.652344c0-4.875-3.949219-8.828125-8.828125-8.828125h-17.652344c-4.875 0-8.828125-3.953125-8.828125-8.828125v-17.65625c0-4.875 3.953125-8.828125 8.828125-8.828125h17.652344c4.878906 0 8.828125-3.949218 8.828125-8.824218v-17.65625c0-4.875 3.953125-8.828126 8.828125-8.828126h17.65625c4.875 0 8.828125 3.953126 8.828125 8.828126v17.65625c0 4.875 3.949219 8.824218 8.828125 8.824218h17.652344c4.875 0 8.828125 3.953125 8.828125 8.828125zm0 0" fill="#c03a2b"/><path d="m194.207031 335.449219v158.894531c0 9.75-7.90625 17.65625-17.65625 17.65625h-123.585937c-9.75 0-17.65625-7.90625-17.65625-17.65625v-158.894531c0-9.75 7.90625-17.65625 17.65625-17.65625s17.65625-7.90625 17.65625-17.65625v-17.652344h88.277344v17.652344c0 9.75 7.902343 17.65625 17.652343 17.65625s17.65625 7.90625 17.65625 17.65625zm0 0" fill="#b0d3f0"/><path d="m61.792969 247.171875h105.929687c4.875 0 8.828125 3.953125 8.828125 8.828125v17.65625c0 4.875-3.953125 8.828125-8.828125 8.828125h-105.929687c-4.875 0-8.828125-3.953125-8.828125-8.828125v-17.65625c0-4.875 3.953125-8.828125 8.828125-8.828125zm0 0" fill="#7f5b53"/><path d="m35.308594 353.101562h158.898437v105.933594h-158.898437zm0 0" fill="#fff"/><path d="m123.585938 397.242188h-52.964844c-4.875 0-8.828125-3.953126-8.828125-8.828126s3.953125-8.828124 8.828125-8.828124h52.964844c4.875 0 8.828124 3.953124 8.828124 8.828124s-3.953124 8.828126-8.828124 8.828126zm0 0" fill="#2c2f38"/><path d="m123.585938 432.550781h-52.964844c-4.875 0-8.828125-3.953125-8.828125-8.828125s3.953125-8.824218 8.828125-8.824218h52.964844c4.875 0 8.828124 3.949218 8.828124 8.824218s-3.953124 8.828125-8.828124 8.828125zm0 0" fill="#2c2f38"/><path d="m167.722656 388.414062c0 4.875-3.949218 8.828126-8.824218 8.828126-4.878907 0-8.828126-3.953126-8.828126-8.828126s3.949219-8.828124 8.828126-8.828124c4.875 0 8.824218 3.953124 8.824218 8.828124zm0 0" fill="#2c2f38"/><path d="m167.722656 423.722656c0 4.875-3.949218 8.828125-8.824218 8.828125-4.878907 0-8.828126-3.953125-8.828126-8.828125s3.949219-8.824218 8.828126-8.824218c4.875 0 8.824218 3.949218 8.824218 8.824218zm0 0" fill="#2c2f38"/><path d="m97.101562 247.171875v26.484375c0 4.875-3.949218 8.828125-8.824218 8.828125s-8.828125-3.953125-8.828125-8.828125v-26.484375zm0 0" fill="#2c2f38"/><path d="m141.242188 247.171875v26.484375c0 4.875-3.953126 8.828125-8.828126 8.828125s-8.828124-3.953125-8.828124-8.828125v-26.484375zm0 0" fill="#2c2f38"/><path d="m238.34375 317.792969h88.277344c4.875 0 8.828125 3.953125 8.828125 8.828125v176.550781c0 4.875-3.953125 8.828125-8.828125 8.828125h-88.277344c-4.875 0-8.828125-3.953125-8.828125-8.828125v-176.550781c0-4.875 3.953125-8.828125 8.828125-8.828125zm0 0" fill="#fff"/><path d="m282.484375 282.484375c14.625 0 26.480469 11.855469 26.480469 26.480469v8.828125h-52.964844v-8.828125c0-14.625 11.855469-26.480469 26.484375-26.480469zm0 0" fill="#7f5b53"/><g fill="#a5a5a4"><path d="m273.65625 361.929688c0 4.875-3.953125 8.828124-8.828125 8.828124h-35.3125v-17.65625h35.3125c4.875 0 8.828125 3.953126 8.828125 8.828126zm0 0"/><path d="m308.964844 361.929688c0 4.875-3.953125 8.828124-8.828125 8.828124s-8.828125-3.953124-8.828125-8.828124 3.953125-8.828126 8.828125-8.828126 8.828125 3.953126 8.828125 8.828126zm0 0"/><path d="m335.449219 388.414062v17.65625h-35.3125c-4.875 0-8.828125-3.953124-8.828125-8.828124s3.953125-8.828126 8.828125-8.828126zm0 0"/><path d="m273.65625 397.242188c0 4.875-3.953125 8.828124-8.828125 8.828124s-8.828125-3.953124-8.828125-8.828124 3.953125-8.828126 8.828125-8.828126 8.828125 3.953126 8.828125 8.828126zm0 0"/><path d="m273.65625 432.550781c0 4.875-3.953125 8.828125-8.828125 8.828125h-35.3125v-17.65625h35.3125c4.875 0 8.828125 3.953125 8.828125 8.828125zm0 0"/><path d="m308.964844 432.550781c0 4.875-3.953125 8.828125-8.828125 8.828125s-8.828125-3.953125-8.828125-8.828125 3.953125-8.828125 8.828125-8.828125 8.828125 3.953125 8.828125 8.828125zm0 0"/><path d="m335.449219 459.035156v17.65625h-35.3125c-4.875 0-8.828125-3.953125-8.828125-8.828125s3.953125-8.828125 8.828125-8.828125zm0 0"/><path d="m273.65625 467.863281c0 4.875-3.953125 8.828125-8.828125 8.828125s-8.828125-3.953125-8.828125-8.828125 3.953125-8.828125 8.828125-8.828125 8.828125 3.953125 8.828125 8.828125zm0 0"/></g><path d="m476.691406 308.964844v176.550781c0 14.628906-11.859375 26.484375-26.484375 26.484375s-26.484375-11.855469-26.484375-26.484375v-176.550781c0-14.625 11.859375-26.480469 26.484375-26.480469s26.484375 11.855469 26.484375 26.480469zm0 0" fill="#f09372"/><path d="m423.722656 361.929688h52.96875v70.621093h-52.96875zm0 0" fill="#fdd7ad"/><path d="m450.207031 326.621094c0 4.875-3.953125 8.828125-8.828125 8.828125h-17.65625v-17.65625h17.65625c4.875 0 8.828125 3.953125 8.828125 8.828125zm0 0" fill="#f0785a"/><path d="m476.691406 459.035156v17.65625h-17.65625c-4.875 0-8.828125-3.953125-8.828125-8.828125s3.953125-8.828125 8.828125-8.828125zm0 0" fill="#f0785a"/><path d="m35.308594 167.722656c-4.875 0-8.824219-3.949218-8.824219-8.824218v-35.3125c0-4.875 3.949219-8.828126 8.824219-8.828126 4.878906 0 8.828125 3.953126 8.828125 8.828126v35.3125c0 4.875-3.949219 8.824218-8.828125 8.824218zm0 0" fill="#fff"/><path d="m35.308594 220.691406c-4.875 0-8.824219-3.953125-8.824219-8.828125v-17.65625c0-4.875 3.949219-8.828125 8.824219-8.828125 4.878906 0 8.828125 3.953125 8.828125 8.828125v17.65625c0 4.875-3.949219 8.828125-8.828125 8.828125zm0 0" fill="#fff"/></svg>