<svg height="512pt" viewBox="0 0 512 512" width="512pt" xmlns="http://www.w3.org/2000/svg"><path d="m44.136719 132.414062h423.726562v290.375h-423.726562zm0 0" fill="#b0d3f0"/><path d="m467.863281 132.414062v15.710938c-82.1875 18.628906-289.371093 80.6875-423.726562 251.941406v-267.652344zm0 0" fill="#90bae1"/><path d="m269.242188 238.34375h97.101562c12.1875 0 22.070312 9.882812 22.070312 22.070312s-9.882812 22.070313-22.070312 22.070313h-97.101562c-12.1875 0-22.070313-9.882813-22.070313-22.070313s9.882813-22.070312 22.070313-22.070312zm0 0" fill="#df4d60"/><g fill="#e6e7e8"><path d="m264.828125 308.964844h-8.828125c-4.875 0-8.828125 3.953125-8.828125 8.828125s3.953125 8.828125 8.828125 8.828125h8.828125c4.875 0 8.828125-3.953125 8.828125-8.828125s-3.953125-8.828125-8.828125-8.828125zm0 0"/><path d="m300.136719 326.621094h79.449219c4.875 0 8.828124-3.953125 8.828124-8.828125s-3.953124-8.828125-8.828124-8.828125h-79.449219c-4.875 0-8.828125 3.953125-8.828125 8.828125s3.953125 8.828125 8.828125 8.828125zm0 0"/><path d="m264.828125 344.277344h-8.828125c-4.875 0-8.828125 3.949218-8.828125 8.824218 0 4.878907 3.953125 8.828126 8.828125 8.828126h8.828125c4.875 0 8.828125-3.949219 8.828125-8.828126 0-4.875-3.953125-8.824218-8.828125-8.824218zm0 0"/><path d="m379.585938 344.277344h-79.449219c-4.875 0-8.828125 3.949218-8.828125 8.824218 0 4.878907 3.953125 8.828126 8.828125 8.828126h79.449219c4.875 0 8.828124-3.949219 8.828124-8.828126 0-4.875-3.953124-8.824218-8.828124-8.824218zm0 0"/></g><path d="m512 467.863281-44.136719-71.558593h-423.726562l-44.136719 71.558593v8.828125h512zm0 0" fill="#95a5a5"/><path d="m188.546875 290.285156c-6.363281-3.8125-13.457031-6.253906-20.824219-7.167968v-26.03125c4.042969.625 7.9375 1.996093 11.476563 4.042968 4.144531 2.585938 9.601562 1.324219 12.1875-2.820312 2.585937-4.144532 1.324219-9.601563-2.820313-12.1875-6.386718-3.738282-13.488281-6.085938-20.84375-6.894532v-9.710937c0-4.875-3.949218-8.824219-8.824218-8.824219-4.878907 0-8.828126 3.949219-8.828126 8.824219v9.710937c-7.351562.820313-14.445312 3.1875-20.816406 6.941407-8.863281 4.277343-14.492187 13.25-14.492187 23.089843 0 9.84375 5.628906 18.816407 14.492187 23.09375 6.363282 3.808594 13.453125 6.242188 20.816406 7.152344v26.03125c-4.042968-.625-7.9375-1.996094-11.476562-4.042968-4.144531-2.585938-9.601562-1.324219-12.1875 2.820312s-1.324219 9.601562 2.820312 12.1875c6.375 3.804688 13.472657 6.238281 20.84375 7.140625v9.460937c0 4.878907 3.949219 8.828126 8.828126 8.828126 4.875 0 8.824218-3.949219 8.824218-8.828126v-9.460937c7.363282-.910156 14.453125-3.351563 20.816406-7.167969 8.863282-4.28125 14.492188-13.253906 14.492188-23.09375s-5.628906-18.8125-14.492188-23.09375zm-56.132813-21.042968c.597657-3.558594 2.910157-6.59375 6.179688-8.113282 3.539062-2.046875 7.433594-3.417968 11.476562-4.042968v24.515624c-4.046874-.703124-7.933593-2.128906-11.476562-4.203124-3.28125-1.53125-5.597656-4.582032-6.179688-8.15625zm46.785157 52.25c-3.539063 2.046874-7.433594 3.417968-11.476563 4.042968v-24.515625c4.046875.703125 7.933594 2.128907 11.476563 4.203125 3.269531 1.519532 5.582031 4.554688 6.179687 8.113282-.582031 3.574218-2.898437 6.625-6.179687 8.15625zm0 0" fill="#24ae5f"/><path d="m459.035156 17.65625v52.964844h-406.070312v-52.964844c.03125-9.738281 7.917968-17.6289062 17.65625-17.65625h370.757812c9.738282.0273438 17.625 7.917969 17.65625 17.65625zm0 0" fill="#df4d60"/><path d="m459.035156 44.136719h-406.070312l-44.136719 97.105469v26.480468c0 19.503906 15.808594 35.3125 35.308594 35.3125 19.503906 0 35.3125-15.808594 35.3125-35.3125 0 19.503906 15.808593 35.3125 35.308593 35.3125 19.503907 0 35.3125-15.808594 35.3125-35.3125 0 19.503906 15.808594 35.3125 35.308594 35.3125s35.3125-15.808594 35.3125-35.3125c0 19.503906 15.808594 35.3125 35.308594 35.3125s35.308594-15.808594 35.308594-35.3125c0 19.503906 15.8125 35.3125 35.3125 35.3125s35.308594-15.808594 35.308594-35.3125c0 19.503906 15.808593 35.3125 35.3125 35.3125 19.5 0 35.308593-15.808594 35.308593-35.3125 0 19.503906 15.808594 35.3125 35.3125 35.3125 19.5 0 35.308594-15.808594 35.308594-35.3125v-26.480468zm0 0" fill="#ff5364"/><path d="m150.070312 141.242188v26.480468c0 19.503906-15.808593 35.3125-35.3125 35.3125-19.5 0-35.308593-15.808594-35.308593-35.3125v-26.480468zm0 0" fill="#95a5a5"/><path d="m220.691406 141.242188v26.480468c0 19.503906-15.8125 35.3125-35.3125 35.3125s-35.308594-15.808594-35.308594-35.3125v-26.480468zm0 0" fill="#df4d60"/><path d="m291.308594 141.242188v26.480468c0 19.503906-15.808594 35.3125-35.308594 35.3125s-35.308594-15.808594-35.308594-35.3125v-26.480468zm0 0" fill="#95a5a5"/><path d="m503.171875 141.242188v26.480468c0 19.503906-15.808594 35.3125-35.308594 35.3125-19.503906 0-35.3125-15.808594-35.3125-35.3125v-26.480468zm0 0" fill="#df4d60"/><path d="m79.449219 141.242188v26.480468c0 19.503906-15.808594 35.3125-35.3125 35.3125-19.5 0-35.308594-15.808594-35.308594-35.3125v-26.480468zm0 0" fill="#df4d60"/><path d="m361.929688 141.242188v26.480468c0 19.503906-15.808594 35.3125-35.308594 35.3125s-35.3125-15.808594-35.3125-35.3125v-26.480468zm0 0" fill="#df4d60"/><path d="m432.550781 141.242188v26.480468c0 19.503906-15.808593 35.3125-35.308593 35.3125-19.503907 0-35.3125-15.808594-35.3125-35.3125v-26.480468zm0 0" fill="#95a5a5"/><path d="m167.722656 44.136719-17.652344 97.105469h-70.621093l26.480469-97.105469zm0 0" fill="#bdc3c7"/><path d="m344.277344 44.136719 17.652344 97.105469h70.621093l-26.480469-97.105469zm0 0" fill="#bdc3c7"/><path d="m220.691406 44.136719h70.617188v97.105469h-70.617188zm0 0" fill="#bdc3c7"/><path d="m344.277344 467.863281-21.601563-26.484375c-2.992187-5.984375-9.105469-9.761718-15.792969-9.761718h-101.765624c-6.6875 0-12.800782 3.777343-15.792969 9.761718l-21.601563 26.484375zm0 0" fill="#bdc3c7"/><path d="m512 467.863281v26.480469c0 9.75-7.90625 17.65625-17.65625 17.65625h-476.6875c-9.75 0-17.65625-7.90625-17.65625-17.65625v-26.480469zm0 0" fill="#7f8c8d"/></svg>