<svg width="1920" height="595" viewBox="0 0 1920 595" xmlns="http://www.w3.org/2000/svg"><g fill-rule="nonzero" fill="rgba(255,255,255,0.2)"><path d="M320 223.101v-38.684l-16-9.334-17-9.916v38.684l33 19.25zm2 0l33-19.25v-38.684l-17 9.916-16 9.334V223.1zM288.97 164L321 182.685 353.03 164 321 145.315 288.97 164zM321 143l36 21v41l-36 21-36-21v-41l36-21zM320 103.101V64.417l-16-9.334-17-9.916V83.85l33 19.25zm2 0l33-19.25V45.167l-17 9.916-16 9.334V103.1zM288.97 44L321 62.685 353.03 44 321 25.315 288.97 44zM321 23l36 21v41l-36 21-36-21V44l36-21z"/><path d="M355 163.101v-38.684l-16-9.334-17-9.916v38.684l33 19.25zm2 0l33-19.25v-38.684l-17 9.916-16 9.334V163.1zM323.97 104L356 122.685 388.03 104 356 85.315 323.97 104zM356 83l36 21v41l-36 21-36-21v-41l36-21zM460 504.101v-38.684l-16-9.334-17-9.916v38.684l33 19.25zm2 0l33-19.25v-38.684l-17 9.916-16 9.334V504.1zM428.97 445L461 463.685 493.03 445 461 426.315 428.97 445zM461 424l36 21v41l-36 21-36-21v-41l36-21z"/><path d="M425 564.101v-38.684l-16-9.334-17-9.916v38.684l33 19.25zm2 0l33-19.25v-38.684l-17 9.916-16 9.334V564.1zM393.97 505L426 523.685 458.03 505 426 486.315 393.97 505zM426 484l36 21v41l-36 21-36-21v-41l36-21z"/><path d="M495 564.101v-38.684l-16-9.334-17-9.916v38.684l33 19.25zm2 0l33-19.25v-38.684l-17 9.916-16 9.334V564.1zM463.97 505L496 523.685 528.03 505 496 486.315 463.97 505zM496 484l36 21v41l-36 21-36-21v-41l36-21zM285 444.101v-38.684l-16-9.334-17-9.916v38.684l33 19.25zm2 0l33-19.25v-38.684l-17 9.916-16 9.334V444.1zM253.97 385L286 403.685 318.03 385 286 366.315 253.97 385zM286 364l36 21v41l-36 21-36-21v-41l36-21zM355 324.101v-38.684l-16-9.334-17-9.916v38.684l33 19.25zm2 0l33-19.25v-38.684l-17 9.916-16 9.334V324.1zM323.97 265L356 283.685 388.03 265 356 246.315 323.97 265zM356 244l36 21v41l-36 21-36-21v-41l36-21z"/><path d="M425 324.101v-38.684l-16-9.334-17-9.916v38.684l33 19.25zm2 0l33-19.25v-38.684l-17 9.916-16 9.334V324.1zM393.97 265L426 283.685 458.03 265 426 246.315 393.97 265zM426 244l36 21v41l-36 21-36-21v-41l36-21zM320 384.101v-38.684l-16-9.334-17-9.916v38.684l33 19.25zm2 0l33-19.25v-38.684l-17 9.916-16 9.334V384.1zM288.97 325L321 343.685 353.03 325 321 306.315 288.97 325zM321 304l36 21v41l-36 21-36-21v-41l36-21z"/><path d="M390 384.101v-38.684l-16-9.334-17-9.916v38.684l33 19.25zm2 0l33-19.25v-38.684l-17 9.916-16 9.334V384.1zM358.97 325L391 343.685 423.03 325 391 306.315 358.97 325zM391 304l36 21v41l-36 21-36-21v-41l36-21z"/><path d="M460 384.101v-38.684l-16-9.334-17-9.916v38.684l33 19.25zm2 0l33-19.25v-38.684l-17 9.916-16 9.334V384.1zM428.97 325L461 343.685 493.03 325 461 306.315 428.97 325zM461 304l36 21v41l-36 21-36-21v-41l36-21zM75 324.101v-38.684l-16-9.334-17-9.916v38.684l33 19.25zm2 0l33-19.25v-38.684l-17 9.916-16 9.334V324.1zM43.97 265L76 283.685 108.03 265 76 246.315 43.97 265zM76 244l36 21v41l-36 21-36-21v-41l36-21z"/><path d="M145 324.101v-38.684l-16-9.334-17-9.916v38.684l33 19.25zm2 0l33-19.25v-38.684l-17 9.916-16 9.334V324.1zM113.97 265L146 283.685 178.03 265 146 246.315 113.97 265zM146 244l36 21v41l-36 21-36-21v-41l36-21z"/><path d="M110 264.101v-38.684l-16-9.334-17-9.916v38.684l33 19.25zm2 0l33-19.25v-38.684l-17 9.916-16 9.334V264.1zM78.97 205L111 223.685 143.03 205 111 186.315 78.97 205zM111 184l36 21v41l-36 21-36-21v-41l36-21z"/><path d="M180 264.101v-38.684l-16-9.334-17-9.916v38.684l33 19.25zm2 0l33-19.25v-38.684l-17 9.916-16 9.334V264.1zM148.97 205L181 223.685 213.03 205 181 186.315 148.97 205zM181 184l36 21v41l-36 21-36-21v-41l36-21z"/><path d="M145 204.101v-38.684l-16-9.334-17-9.916v38.684l33 19.25zm2 0l33-19.25v-38.684l-17 9.916-16 9.334V204.1zM113.97 145L146 163.685 178.03 145 146 126.315 113.97 145zM146 124l36 21v41l-36 21-36-21v-41l36-21zM110 504.101v-38.684l-16-9.334-17-9.916v38.684l33 19.25zm2 0l33-19.25v-38.684l-17 9.916-16 9.334V504.1zM78.97 445L111 463.685 143.03 445 111 426.315 78.97 445zM111 424l36 21v41l-36 21-36-21v-41l36-21z"/><path d="M180 504.101v-38.684l-16-9.334-17-9.916v38.684l33 19.25zm2 0l33-19.25v-38.684l-17 9.916-16 9.334V504.1zM148.97 445L181 463.685 213.03 445 181 426.315 148.97 445zM181 424l36 21v41l-36 21-36-21v-41l36-21zM75 564.101v-38.684l-16-9.334-17-9.916v38.684l33 19.25zm2 0l33-19.25v-38.684l-17 9.916-16 9.334V564.1zM43.97 505L76 523.685 108.03 505 76 486.315 43.97 505zM76 484l36 21v41l-36 21-36-21v-41l36-21z"/><path d="M145 564.101v-38.684l-16-9.334-17-9.916v38.684l33 19.25zm2 0l33-19.25v-38.684l-17 9.916-16 9.334V564.1zM113.97 505L146 523.685 178.03 505 146 486.315 113.97 505zM146 484l36 21v41l-36 21-36-21v-41l36-21z"/><path d="M215 564.101v-38.684l-16-9.334-17-9.916v38.684l33 19.25zm2 0l33-19.25v-38.684l-17 9.916-16 9.334V564.1zM183.97 505L216 523.685 248.03 505 216 486.315 183.97 505zM216 484l36 21v41l-36 21-36-21v-41l36-21zM145 444.101v-38.684l-16-9.334-17-9.916v38.684l33 19.25zm2 0l33-19.25v-38.684l-17 9.916-16 9.334V444.1zM113.97 385L146 403.685 178.03 385 146 366.315 113.97 385zM146 364l36 21v41l-36 21-36-21v-41l36-21zM915 564.101v-38.684l-16-9.334-17-9.916v38.684l33 19.25zm2 0l33-19.25v-38.684l-17 9.916-16 9.334V564.1zM883.97 505L916 523.685 948.03 505 916 486.315 883.97 505zM916 484l36 21v41l-36 21-36-21v-41l36-21z"/><path d="M845 564.101v-38.684l-16-9.334-17-9.916v38.684l33 19.25zm2 0l33-19.25v-38.684l-17 9.916-16 9.334V564.1zM813.97 505L846 523.685 878.03 505 846 486.315 813.97 505zM846 484l36 21v41l-36 21-36-21v-41l36-21z"/><path d="M775 564.101v-38.684l-16-9.334-17-9.916v38.684l33 19.25zm2 0l33-19.25v-38.684l-17 9.916-16 9.334V564.1zM743.97 505L776 523.685 808.03 505 776 486.315 743.97 505zM776 484l36 21v41l-36 21-36-21v-41l36-21zM880 504.101v-38.684l-16-9.334-17-9.916v38.684l33 19.25zm2 0l33-19.25v-38.684l-17 9.916-16 9.334V504.1zM848.97 445L881 463.685 913.03 445 881 426.315 848.97 445zM881 424l36 21v41l-36 21-36-21v-41l36-21zM670 384.101v-38.684l-16-9.334-17-9.916v38.684l33 19.25zm2 0l33-19.25v-38.684l-17 9.916-16 9.334V384.1zM638.97 325L671 343.685 703.03 325 671 306.315 638.97 325zM671 304l36 21v41l-36 21-36-21v-41l36-21z"/><path d="M740 384.101v-38.684l-16-9.334-17-9.916v38.684l33 19.25zm2 0l33-19.25v-38.684l-17 9.916-16 9.334V384.1zM708.97 325L741 343.685 773.03 325 741 306.315 708.97 325zM741 304l36 21v41l-36 21-36-21v-41l36-21zM915 444.101v-38.684l-16-9.334-17-9.916v38.684l33 19.25zm2 0l33-19.25v-38.684l-17 9.916-16 9.334V444.1zM883.97 385L916 403.685 948.03 385 916 366.315 883.97 385zM916 364l36 21v41l-36 21-36-21v-41l36-21zM670 264.101v-38.684l-16-9.334-17-9.916v38.684l33 19.25zm2 0l33-19.25v-38.684l-17 9.916-16 9.334V264.1zM638.97 205L671 223.685 703.03 205 671 186.315 638.97 205zM671 184l36 21v41l-36 21-36-21v-41l36-21z"/><path d="M635 324.101v-38.684l-16-9.334-17-9.916v38.684l33 19.25zm2 0l33-19.25v-38.684l-17 9.916-16 9.334V324.1zM603.97 265L636 283.685 668.03 265 636 246.315 603.97 265zM636 244l36 21v41l-36 21-36-21v-41l36-21z"/><path d="M705 324.101v-38.684l-16-9.334-17-9.916v38.684l33 19.25zm2 0l33-19.25v-38.684l-17 9.916-16 9.334V324.1zM673.97 265L706 283.685 738.03 265 706 246.315 673.97 265zM706 244l36 21v41l-36 21-36-21v-41l36-21zM880 264.101v-38.684l-16-9.334-17-9.916v38.684l33 19.25zm2 0l33-19.25v-38.684l-17 9.916-16 9.334V264.1zM848.97 205L881 223.685 913.03 205 881 186.315 848.97 205zM881 184l36 21v41l-36 21-36-21v-41l36-21zM880 144.101v-38.684l-16-9.334-17-9.916v38.684l33 19.25zm2 0l33-19.25V86.167l-17 9.916-16 9.334V144.1zM848.97 85L881 103.685 913.03 85 881 66.315 848.97 85zM881 64l36 21v41l-36 21-36-21V85l36-21z"/><path d="M845 204.101v-38.684l-16-9.334-17-9.916v38.684l33 19.25zm2 0l33-19.25v-38.684l-17 9.916-16 9.334V204.1zM813.97 145L846 163.685 878.03 145 846 126.315 813.97 145zM846 124l36 21v41l-36 21-36-21v-41l36-21z"/><path d="M915 204.101v-38.684l-16-9.334-17-9.916v38.684l33 19.25zm2 0l33-19.25v-38.684l-17 9.916-16 9.334V204.1zM883.97 145L916 163.685 948.03 145 916 126.315 883.97 145zM916 124l36 21v41l-36 21-36-21v-41l36-21zM1335 564.101v-38.684l-16-9.334-17-9.916v38.684l33 19.25zm2 0l33-19.25v-38.684l-17 9.916-16 9.334V564.1zM1303.97 505l32.03 18.685L1368.03 505 1336 486.315 1303.97 505zm32.03-21l36 21v41l-36 21-36-21v-41l36-21z"/><path d="M1300 504.101v-38.684l-16-9.334-17-9.916v38.684l33 19.25zm2 0l33-19.25v-38.684l-17 9.916-16 9.334V504.1zM1268.97 445l32.03 18.685L1333.03 445 1301 426.315 1268.97 445zm32.03-21l36 21v41l-36 21-36-21v-41l36-21z"/><path d="M1370 504.101v-38.684l-16-9.334-17-9.916v38.684l33 19.25zm2 0l33-19.25v-38.684l-17 9.916-16 9.334V504.1zM1338.97 445l32.03 18.685L1403.03 445 1371 426.315 1338.97 445zm32.03-21l36 21v41l-36 21-36-21v-41l36-21zM1090 384.101v-38.684l-16-9.334-17-9.916v38.684l33 19.25zm2 0l33-19.25v-38.684l-17 9.916-16 9.334V384.1zM1058.97 325l32.03 18.685L1123.03 325 1091 306.315 1058.97 325zm32.03-21l36 21v41l-36 21-36-21v-41l36-21z"/><path d="M1020 384.101v-38.684l-16-9.334-17-9.916v38.684l33 19.25zm2 0l33-19.25v-38.684l-17 9.916-16 9.334V384.1zM988.97 325l32.03 18.685L1053.03 325 1021 306.315 988.97 325zm32.03-21l36 21v41l-36 21-36-21v-41l36-21zM1300 384.101v-38.684l-16-9.334-17-9.916v38.684l33 19.25zm2 0l33-19.25v-38.684l-17 9.916-16 9.334V384.1zM1268.97 325l32.03 18.685L1333.03 325 1301 306.315 1268.97 325zm32.03-21l36 21v41l-36 21-36-21v-41l36-21z"/><path d="M1055 324.101v-38.684l-16-9.334-17-9.916v38.684l33 19.25zm2 0l33-19.25v-38.684l-17 9.916-16 9.334V324.1zM1023.97 265l32.03 18.685L1088.03 265 1056 246.315 1023.97 265zm32.03-21l36 21v41l-36 21-36-21v-41l36-21z"/><path d="M1125 324.101v-38.684l-16-9.334-17-9.916v38.684l33 19.25zm2 0l33-19.25v-38.684l-17 9.916-16 9.334V324.1zM1093.97 265l32.03 18.685L1158.03 265 1126 246.315 1093.97 265zm32.03-21l36 21v41l-36 21-36-21v-41l36-21zM1265 324.101v-38.684l-16-9.334-17-9.916v38.684l33 19.25zm2 0l33-19.25v-38.684l-17 9.916-16 9.334V324.1zM1233.97 265l32.03 18.685L1298.03 265 1266 246.315 1233.97 265zm32.03-21l36 21v41l-36 21-36-21v-41l36-21z"/><path d="M1230 264.101v-38.684l-16-9.334-17-9.916v38.684l33 19.25zm2 0l33-19.25v-38.684l-17 9.916-16 9.334V264.1zM1198.97 205l32.03 18.685L1263.03 205 1231 186.315 1198.97 205zm32.03-21l36 21v41l-36 21-36-21v-41l36-21zM1230 144.101v-38.684l-16-9.334-17-9.916v38.684l33 19.25zm2 0l33-19.25V86.167l-17 9.916-16 9.334V144.1zM1198.97 85l32.03 18.685L1263.03 85 1231 66.315 1198.97 85zM1231 64l36 21v41l-36 21-36-21V85l36-21z"/><path d="M1195 84.101V45.417l-16-9.334-17-9.916V64.85l33 19.25zm2 0l33-19.25V26.167l-17 9.916-16 9.334V84.1zM1163.97 25L1196 43.685 1228.03 25 1196 6.315 1163.97 25zM1196 4l36 21v41l-36 21-36-21V25l36-21z"/><path d="M1265 84.101V45.417l-16-9.334-17-9.916V64.85l33 19.25zm2 0l33-19.25V26.167l-17 9.916-16 9.334V84.1zM1233.97 25L1266 43.685 1298.03 25 1266 6.315 1233.97 25zM1266 4l36 21v41l-36 21-36-21V25l36-21zM1580 504.101v-38.684l-16-9.334-17-9.916v38.684l33 19.25zm2 0l33-19.25v-38.684l-17 9.916-16 9.334V504.1zM1548.97 445l32.03 18.685L1613.03 445 1581 426.315 1548.97 445zm32.03-21l36 21v41l-36 21-36-21v-41l36-21z"/><path d="M1545 564.101v-38.684l-16-9.334-17-9.916v38.684l33 19.25zm2 0l33-19.25v-38.684l-17 9.916-16 9.334V564.1zM1513.97 505l32.03 18.685L1578.03 505 1546 486.315 1513.97 505zm32.03-21l36 21v41l-36 21-36-21v-41l36-21z"/><path d="M1615 564.101v-38.684l-16-9.334-17-9.916v38.684l33 19.25zm2 0l33-19.25v-38.684l-17 9.916-16 9.334V564.1zM1583.97 505l32.03 18.685L1648.03 505 1616 486.315 1583.97 505zm32.03-21l36 21v41l-36 21-36-21v-41l36-21zM1860 504.101v-38.684l-16-9.334-17-9.916v38.684l33 19.25zm2 0l33-19.25v-38.684l-17 9.916-16 9.334V504.1zM1828.97 445l32.03 18.685L1893.03 445 1861 426.315 1828.97 445zm32.03-21l36 21v41l-36 21-36-21v-41l36-21zM1650 384.101v-38.684l-16-9.334-17-9.916v38.684l33 19.25zm2 0l33-19.25v-38.684l-17 9.916-16 9.334V384.1zM1618.97 325l32.03 18.685L1683.03 325 1651 306.315 1618.97 325zm32.03-21l36 21v41l-36 21-36-21v-41l36-21z"/><path d="M1825 444.101v-38.684l-16-9.334-17-9.916v38.684l33 19.25zm2 0l33-19.25v-38.684l-17 9.916-16 9.334V444.1zM1793.97 385l32.03 18.685L1858.03 385 1826 366.315 1793.97 385zm32.03-21l36 21v41l-36 21-36-21v-41l36-21zM1580 264.101v-38.684l-16-9.334-17-9.916v38.684l33 19.25zm2 0l33-19.25v-38.684l-17 9.916-16 9.334V264.1zM1548.97 205l32.03 18.685L1613.03 205 1581 186.315 1548.97 205zm32.03-21l36 21v41l-36 21-36-21v-41l36-21z"/><path d="M1650 264.101v-38.684l-16-9.334-17-9.916v38.684l33 19.25zm2 0l33-19.25v-38.684l-17 9.916-16 9.334V264.1zM1618.97 205l32.03 18.685L1683.03 205 1651 186.315 1618.97 205zm32.03-21l36 21v41l-36 21-36-21v-41l36-21zM1545 324.101v-38.684l-16-9.334-17-9.916v38.684l33 19.25zm2 0l33-19.25v-38.684l-17 9.916-16 9.334V324.1zM1513.97 265l32.03 18.685L1578.03 265 1546 246.315 1513.97 265zm32.03-21l36 21v41l-36 21-36-21v-41l36-21z"/><path d="M1615 324.101v-38.684l-16-9.334-17-9.916v38.684l33 19.25zm2 0l33-19.25v-38.684l-17 9.916-16 9.334V324.1zM1583.97 265l32.03 18.685L1648.03 265 1616 246.315 1583.97 265zm32.03-21l36 21v41l-36 21-36-21v-41l36-21zM1615 204.101v-38.684l-16-9.334-17-9.916v38.684l33 19.25zm2 0l33-19.25v-38.684l-17 9.916-16 9.334V204.1zM1583.97 145l32.03 18.685L1648.03 145 1616 126.315 1583.97 145zm32.03-21l36 21v41l-36 21-36-21v-41l36-21zM1790 144.101v-38.684l-16-9.334-17-9.916v38.684l33 19.25zm2 0l33-19.25V86.167l-17 9.916-16 9.334V144.1zM1758.97 85l32.03 18.685L1823.03 85 1791 66.315 1758.97 85zM1791 64l36 21v41l-36 21-36-21V85l36-21z"/><path d="M1860 144.101v-38.684l-16-9.334-17-9.916v38.684l33 19.25zm2 0l33-19.25V86.167l-17 9.916-16 9.334V144.1zM1828.97 85l32.03 18.685L1893.03 85 1861 66.315 1828.97 85zM1861 64l36 21v41l-36 21-36-21V85l36-21zM1755 84.101V45.417l-16-9.334-17-9.916V64.85l33 19.25zm2 0l33-19.25V26.167l-17 9.916-16 9.334V84.1zM1723.97 25L1756 43.685 1788.03 25 1756 6.315 1723.97 25zM1756 4l36 21v41l-36 21-36-21V25l36-21z"/><path d="M1825 204.101v-38.684l-16-9.334-17-9.916v38.684l33 19.25zm2 0l33-19.25v-38.684l-17 9.916-16 9.334V204.1zM1793.97 145l32.03 18.685L1858.03 145 1826 126.315 1793.97 145zm32.03-21l36 21v41l-36 21-36-21v-41l36-21z"/></g></svg>